Coordinates
version=1
nRows=12
nColumns=33
inDegrees=yes

Units are S.I. units (second, meters, Newtons, ...)
Angles are in degrees.

endheader
time	ground_thorax_rot_x	ground_thorax_rot_y	ground_thorax_rot_z	ground_thorax_tx	ground_thorax_ty	ground_thorax_tz	clav_prot_r	clav_elev_r	scapula_abduction_r	scapula_elevation_r	scapula_upward_rot_r	scapula_winging_r	shoulder_elv_r	plane_of_elev_r	axial_rot_r	elbow_flexion_r	pro_sup_r	wrist_flex_r	wrist_dev_r	clav_prot_l	clav_elev_l	scapula_abduction_l	scapula_elevation_l	scapula_upward_rot_l	scapula_winging_l	shoulder_elv_l	plane_of_elev_l	axial_rot_l	elbow_flexion_l	pro_sup_l	wrist_flex_l	wrist_dev_l
      3.53000000	     -3.10060987	      2.63004068	     11.49696659	     -0.10993141	      1.02538928	      0.01083341	     15.66212529	    -12.91273369	     35.66239187	    -11.16860883	     15.94240460	     -9.82685874	    -13.09777346	    -58.01544058	    113.30203746	    -56.60967862	   -166.37405753	      9.63501651	     -2.43103958	     18.76287494	    -10.30547900	    -27.06912628	     -7.99518020	    -27.30370315	      6.46099527	     61.21382090	     -4.94667161	     14.67641423	     35.23809981	     26.65133825	     14.06306541	    -15.02655189
      3.54000000	     -2.95987054	      2.60576976	     11.65884764	     -0.11044146	      1.02497524	      0.01112901	     15.55699860	    -12.62066345	     35.08417731	    -10.70518875	     15.26100860	     -9.79343917	    -13.71485326	    -58.36769774	    113.29511433	    -58.13782192	   -166.64520910	     10.01805777	     -2.52296202	     18.57359117	     -9.96458964	    -26.77815480	     -8.50028992	    -27.71313199	      6.33531398	     61.06286235	     -5.39903115	     14.64901186	     36.80427300	     26.41429744	     14.01668925	    -15.30142980
      3.55000000	     -2.98969388	      2.66153524	     11.74908526	     -0.11097432	      1.02524027	      0.01138633	     15.52037549	    -13.00579371	     34.35843716	    -10.70499575	     14.20479465	     -9.33065033	    -14.39330278	    -58.80378338	    112.66308009	    -59.84064994	   -167.93234499	     10.50300774	     -2.91977347	     18.36230972	     -9.86909363	    -26.43170145	     -8.75328474	    -28.04868091	      6.13753564	     61.34172153	     -6.35827318	     14.02277025	     38.57999114	     25.76122128	     14.25639063	    -15.36098656
      3.56000000	     -2.77690983	      2.66451978	     11.53812147	     -0.11129678	      1.02502335	      0.01157744	     15.35751147	    -12.70249575	     33.84508391	    -10.30447920	     13.76806964	     -9.30298261	    -14.85794703	    -59.22469782	    112.63527129	    -61.38379826	   -168.06758179	     10.88214248	     -2.99595151	     18.16762566	     -9.54192233	    -26.13035439	     -9.19157646	    -28.33953274	      6.00783165	     61.20559311	     -6.60600577	     14.32013655	     40.12566845	     25.48190469	     14.17925183	    -15.60178852
      3.57000000	     -2.92322582	      2.63743596	     11.75247229	     -0.11137918	      1.02597728	      0.01160394	     14.95580403	    -13.70160548	     32.55949174	    -10.86698978	     12.77972927	     -8.20601759	    -16.10132973	    -60.26865636	    111.77769522	    -63.09301251	   -170.27697838	     11.76073840	     -3.93513991	     17.77533563	     -9.49167183	    -25.47307269	     -9.38513213	    -28.61880276	      5.63978147	     61.48590422	     -7.96592315	     13.67340125	     41.97478301	     23.85437559	     14.74344965	    -15.13283221
      3.58000000	     -2.75242354	      2.58564364	     11.91618756	     -0.11185191	      1.02551952	      0.01183027	     14.81176716	    -13.34750081	     31.93287642	    -10.33159016	     12.09227560	     -8.17817886	    -16.75186597	    -60.72486586	    111.77395034	    -64.59649252	   -170.42968876	     12.20528976	     -4.06387817	     17.58289102	     -9.09056356	    -25.18612154	     -9.97221587	    -29.07902266	      5.50750477	     61.30547686	     -8.50099132	     13.59894519	     43.62416587	     23.52582880	     14.69906155	    -15.38838530
      3.59000000	     -2.61266847	      2.53594958	     12.12625775	     -0.11235131	      1.02529972	      0.01206338	     14.69484042	    -13.17646655	     31.24984745	     -9.89693284	     11.24237458	     -8.02619644	    -17.46022961	    -61.23510761	    111.57547741	    -66.12328371	   -170.65101326	     12.78488138	     -4.37482790	     17.36740407	     -8.79684521	    -24.85444085	    -10.47303044	    -29.55665525	      5.32518486	     61.22305434	     -9.25200935	     13.45275760	     45.34808940	     23.07347620	     14.72043620	    -15.59946254
      3.60000000	     -2.76051067	      2.57730343	     11.96624270	     -0.11247837	      1.02628700	      0.01215021	     14.29675496	    -14.10144749	     30.02832447	    -10.40706221	     10.31366863	     -6.99981635	    -18.56130104	    -62.12803956	    110.58988295	    -67.69998493	   -171.85611744	     14.48484062	     -5.88720014	     17.02700743	     -8.74261864	    -24.28059306	    -10.58978625	    -29.66768205	      5.02170716	     61.64009722	    -10.52030743	     12.83450699	     47.11893010	     21.30971216	     15.08650139	    -15.07293674
      3.61000000	     -2.57637467	      2.52133090	     12.12600986	     -0.11298796	      1.02581922	      0.01232905	     14.12399532	    -13.71267118	     29.35995973	     -9.82219761	      9.61021452	     -6.96667582	    -19.25083623	    -62.69695484	    110.58050387	    -69.16755225	   -171.90401089	     15.01401931	     -6.05267969	     16.82093055	     -8.32469808	    -23.97409812	    -11.20280281	    -30.14283607	      4.86592786	     61.43819144	    -11.11133039	     12.77098045	     48.77674243	     20.97588675	     15.03394838	    -15.31601298
      3.62000000	     -2.58019322	      2.57192630	     12.23407339	     -0.11351170	      1.02615077	      0.01250035	     13.95640981	    -14.11100692	     28.41817781	     -9.77187026	      8.45481632	     -6.38690751	    -20.11874580	    -63.38150460	    109.80230235	    -70.57736022	   -172.15507533	     16.65776870	     -7.24443719	     16.56443077	     -8.19363010	    -23.56043046	    -11.49392990	    -30.48024485	      4.63095696	     61.70837520	    -12.28584766	     12.05445053	     50.56784478	     20.01426179	     15.07721340	    -15.23436214
      3.63000000	     -2.38353885	      2.45426929	     12.38685536	     -0.11387373	      1.02588709	      0.01261756	     13.69288679	    -13.78375942	     27.65807272	     -9.26566630	      7.83815387	     -6.26124785	    -20.88539794	    -64.11103780	    109.80250236	    -71.89679463	   -172.12427149	     17.33467671	     -7.52283726	     16.29423957	     -7.79092617	    -23.14564188	    -12.10061009	    -30.95971337	      4.40502763	     61.42284745	    -12.92930075	     12.25835585	     52.18254274	     19.63548212	     14.98814684	    -15.43316811
      3.64000000	     -2.24684774	      2.36964902	     12.61225418	     -0.11433200	      1.02571717	      0.01275299	     13.48812929	    -13.60807918	     26.85836888	     -8.80137216	      6.98071524	     -6.04180758	    -21.68326222	    -64.83539945	    109.59837141	    -73.18915854	   -172.03099669	     18.34792390	     -8.09759990	     16.02256964	     -7.46639214	    -22.72632674	    -12.63503548	    -31.43339663	      4.16301923	     61.29622310	    -13.80515829	     12.13425618	     53.82084704	     19.21686362	     14.91270020	    -15.62694804
